<svg width="35" height="35" viewBox="0 0 35 35" fill="none" xmlns="http://www.w3.org/2000/svg">
<rect x="1" y="1" width="33" height="33" rx="16.5" fill="#EAE8E0" stroke="#DB1A33" stroke-width="2"/>
<path d="M10.2222 25.7778H11.8056L22.6667 14.9167L21.0833 13.3333L10.2222 24.1944V25.7778ZM8 28V23.2778L22.6667 8.63889C22.8889 8.43519 23.1343 8.27778 23.4028 8.16667C23.6713 8.05556 23.9537 8 24.25 8C24.5463 8 24.8333 8.05556 25.1111 8.16667C25.3889 8.27778 25.6296 8.44444 25.8333 8.66667L27.3611 10.2222C27.5833 10.4259 27.7454 10.6667 27.8472 10.9444C27.9491 11.2222 28 11.5 28 11.7778C28 12.0741 27.9491 12.3565 27.8472 12.625C27.7454 12.8935 27.5833 13.1389 27.3611 13.3611L12.7222 28H8ZM21.8611 14.1389L21.0833 13.3333L22.6667 14.9167L21.8611 14.1389Z" fill="#DB1A33"/>
</svg>
